<svg id="Layer_2" data-name="Layer 2" xmlns="http://www.w3.org/2000/svg" viewBox="0 0 512 512"><defs><style>.cls-1{opacity:0.32;}.cls-2{fill:#dd6c27;}.cls-3{fill:#00d1b2;}</style></defs><g class="cls-1"><path d="M438.16,361.38c-28.17,20.91-147,74-178.81,95.31-.15,25.51,0,36.53,0,44.62C306.51,465.08,438.22,370,438.22,370Z"/><path d="M259.33,176.25c11.55-11.16,38.24-38.08,46.69-38.88,1.33,7.89-29.75,56.88-46.91,81.11.22,45.29.22,96.71.22,146.52,15.37-17.44,58.26-60.77,76.41-78.58v-5.31c-9.54-7.37-21.92-19.4-21.92-19.4l107.61-100.5v-6.87L247.69,44.07,219.17,77.56l9.3,419.93a12.46,12.46,0,0,1,3.88,3.87c0-11.17,5-442.51,14-442.51C255.67,58.85,259.33,172.86,259.33,176.25Z"/></g><path class="cls-2" d="M355.67,297.29c-26,23.6-71.48,70.54-96.27,99.52-.15,27.57,0,91.93,0,100.68,51.75-40.38,125-96.5,178.76-136C418.64,346.65,373.4,311.49,355.67,297.29Z"/><path class="cls-2" d="M259,173.07c12.5-12.63,34.94-34.77,44.08-35.63,1.46,8.53-25.33,43.77-43.84,70-.25,51.24.36,99.16.36,153,23.59-25.57,56.53-60.07,76.17-79.32-7.22-5.22-24.28-21.64-24.28-21.64l109.9-105.13L247.56,10.64,108,131.21,73.83,359.83S210,481.43,228.51,497.49c0-12.07,7-438.64,17.84-438.64S259,168.74,259,173.07Z"/><g class="cls-1"><path d="M438.16,361.38c-28.17,20.91-147,74-178.81,95.31-.15,25.51,0,36.53,0,44.62C306.51,465.08,438.22,370,438.22,370Z"/><path d="M259.33,176.25c11.55-11.16,38.24-38.08,46.69-38.88,1.33,7.89-29.75,56.88-46.91,81.11.22,45.29.22,96.71.22,146.52,15.37-17.44,58.26-60.77,76.41-78.58v-5.31c-9.54-7.37-21.92-19.4-21.92-19.4l107.61-100.5v-6.87L247.69,44.07,219.17,77.56l9.3,419.93a12.46,12.46,0,0,1,3.88,3.87c0-11.17,5-442.51,14-442.51C255.67,58.85,259.33,172.86,259.33,176.25Z"/></g><path class="cls-3" d="M355.67,297.29c-26,23.6-71.48,70.54-96.27,99.52-.15,27.57,0,91.93,0,100.68,51.75-40.38,125-96.5,178.76-136C418.64,346.65,373.4,311.49,355.67,297.29Z"/><path class="cls-3" d="M259,173.07c12.5-12.63,34.94-34.77,44.08-35.63,1.46,8.53-25.33,43.77-43.84,70-.25,51.24.36,99.16.36,153,23.59-25.57,56.53-60.07,76.17-79.32-7.22-5.22-24.28-21.64-24.28-21.64l109.9-105.13L247.56,10.64,108,131.21,73.83,359.83S210,481.43,228.51,497.49c0-12.07,7-438.64,17.84-438.64S259,168.74,259,173.07Z"/></svg>