<svg id="Layer_2" data-name="Layer 2" xmlns="http://www.w3.org/2000/svg" viewBox="0 0 274.23 369.36"><defs><style>.cls-1{opacity:0.32;}.cls-2{fill:#dd6c27;}.cls-3{fill:#00d1b2;}</style></defs><g class="cls-1"><path d="M274.23,264c-21.2,15.74-110.65,55.71-134.59,71.74-.11,19.2,0,27.49,0,33.58,35.5-27.27,134.64-98.83,134.64-98.83Z"/><path d="M139.63,124.65c8.69-8.4,28.78-28.66,35.14-29.26,1,5.94-22.39,42.81-35.31,61.05.17,34.09.17,72.79.17,110.28,11.57-13.12,43.85-45.74,57.51-59.14,0-2.29,0-1,0-4-7.18-5.55-16.5-14.6-16.5-14.6l81-75.65v-5.17l-130.77-83L109.4,50.37l7,316.08a9.35,9.35,0,0,1,2.92,2.91c0-8.41,3.78-333.07,10.51-333.07C136.87,36.29,139.63,122.1,139.63,124.65Z"/></g><path class="cls-2" d="M212.14,215.76c-19.56,17.76-53.8,53.09-72.46,74.91-.11,20.75,0,69.19,0,75.78,38.95-30.4,94.11-72.64,134.55-102.41C259.54,252.91,225.49,226.45,212.14,215.76Z"/><path class="cls-2" d="M139.35,122.26c9.41-9.51,26.3-26.17,33.18-26.82,1.1,6.42-19.07,32.95-33,52.68-.19,38.57.27,74.64.27,115.16,17.76-19.24,42.55-45.21,57.33-59.7-5.43-3.93-18.27-16.29-18.27-16.29l82.72-79.13L130.77,0,25.7,90.75,0,262.83s102.53,91.53,116.43,103.62c0-9.09,5.26-330.16,13.43-330.16S139.35,119,139.35,122.26Z"/><g class="cls-1"><path d="M274.23,264c-21.2,15.74-110.65,55.71-134.59,71.74-.11,19.2,0,27.49,0,33.58,35.5-27.27,134.64-98.83,134.64-98.83Z"/><path d="M139.63,124.65c8.69-8.4,28.78-28.66,35.14-29.26,1,5.94-22.39,42.81-35.31,61.05.17,34.09.17,72.79.17,110.28,11.57-13.12,43.85-45.74,57.51-59.14,0-2.29,0-1,0-4-7.18-5.55-16.5-14.6-16.5-14.6l81-75.65v-5.17l-130.77-83L109.4,50.37l7,316.08a9.35,9.35,0,0,1,2.92,2.91c0-8.41,3.78-333.07,10.51-333.07C136.87,36.29,139.63,122.1,139.63,124.65Z"/></g><path class="cls-3" d="M212.14,215.76c-19.56,17.76-53.8,53.09-72.46,74.91-.11,20.75,0,69.19,0,75.78,38.95-30.4,94.11-72.64,134.55-102.41C259.54,252.91,225.49,226.45,212.14,215.76Z"/><path class="cls-3" d="M139.35,122.26c9.41-9.51,26.3-26.17,33.18-26.82,1.1,6.42-19.07,32.95-33,52.68-.19,38.57.27,74.64.27,115.16,17.76-19.24,42.55-45.21,57.33-59.7-5.43-3.93-18.27-16.29-18.27-16.29l82.72-79.13L130.77,0,25.7,90.75,0,262.83s102.53,91.53,116.43,103.62c0-9.09,5.26-330.16,13.43-330.16S139.35,119,139.35,122.26Z"/></svg>