<svg id="Layer_2" data-name="Layer 2" xmlns="http://www.w3.org/2000/svg" viewBox="0 0 400 400"><defs><style>.cls-1{opacity:0.32;}.cls-2{fill:#dd6c27;}</style></defs><g class="cls-1"><path d="M337.15,282.42c-21.21,15.73-110.65,55.71-134.6,71.73-.11,19.2-.05,27.49-.05,33.58,35.5-27.27,134.65-98.82,134.65-98.82Z"/><path d="M202.54,143c8.69-8.39,28.79-28.66,35.15-29.25,1,5.94-22.39,42.81-35.31,61.05.16,34.08.16,72.79.16,110.27C214.11,272,246.4,239.36,260.06,226c0-2.29-.06-1-.06-4-7.18-5.55-16.49-14.61-16.49-14.61l80.94-75.65v-5.17l-130.77-83L172.31,68.74l7,316.08a9.35,9.35,0,0,1,2.92,2.91c0-8.41,3.79-333.07,10.51-333.07C199.79,54.66,202.54,140.48,202.54,143Z"/></g><path class="cls-2" d="M275.06,234.14c-19.57,17.75-53.8,53.09-72.46,74.9-.12,20.75,0,69.2,0,75.78,39-30.4,94.11-72.64,134.56-102.4C322.46,271.29,288.4,244.83,275.06,234.14Z"/><path class="cls-2" d="M202.26,140.64c9.42-9.52,26.31-26.18,33.18-26.82,1.11,6.42-19.06,33-33,52.67-.2,38.57.27,74.64.27,115.17,17.76-19.24,42.55-45.21,57.32-59.7-5.42-3.94-18.27-16.3-18.27-16.3l82.72-79.13L193.68,18.37,88.61,109.13,62.92,281.21s102.53,91.53,116.42,103.61c0-9.09,5.27-330.16,13.43-330.16S202.26,137.32,202.26,140.64Z"/></svg>