<svg xmlns="http://www.w3.org/2000/svg" viewBox="0 0 640 160"><defs><style>.a{fill:#02cfb1;}.b{fill:#f22644;}.c{fill:#030102;}</style></defs><path class="a" d="M16.38,110.48C14,108.31,11.7,106.09,9.29,104a3.07,3.07,0,0,1-1.11-3.29c3.42-19.37,6.71-38.77,10.14-58.14a8.25,8.25,0,0,1,2.24-4.41C33.28,26.69,46.11,15.39,58.91,4.06A7.43,7.43,0,0,1,60,3.42l49.75,44.45-5.14,5a4.53,4.53,0,0,0-.52,0Q93,43.37,81.85,33.87c-5.93-5-11.89-10-17.93-15.16-1,.85-1.88,1.57-2.73,2.31-11,9.72-21.95,19.55-33.11,29.1a11.05,11.05,0,0,0-3.91,7.62C22.8,67.84,21.24,77.91,19.8,88c-1.06,7.45-2.06,14.91-3.08,22.36A2,2,0,0,1,16.38,110.48Z"/><path class="b" d="M16.38,110.48a2,2,0,0,0,.34-.12L51.89,142a11.29,11.29,0,0,0,.37-1.56q.52-30.75,1-61.5c.17-10.2.19-20.41.49-30.6.16-5.55.69-11.1,1.21-16.63a24.87,24.87,0,0,1,1.34-4.66l1.22,0C58.1,29.4,59,31.65,59.12,34c.46,7.28.62,14.58,1,21.86A6.49,6.49,0,0,0,61,57.9l0,9.38a32.7,32.7,0,0,0-.56,4c-.12,5.15-.14,10.3-.2,15.45q-.69,26.76-1.35,53.53c-.12,5.42,0,10.85,0,17-1.39-1-2.06-1.33-2.6-1.82C43.41,143.76,30.54,132,17.56,120.33c-1.77-1.59-2.45-3-1.74-5.37A24.4,24.4,0,0,0,16.38,110.48Z"/><path class="a" d="M88.5,83.32,115.85,108l3.13,2.85-6.36,4.11-.57-.07L94.27,100.54a7.76,7.76,0,0,0-1.15.77c-8.24,8.66-16.49,17.3-24.66,26a5.06,5.06,0,0,0-1.17,3.06c-.1,3.7,0,7.41.07,11.12a3.71,3.71,0,0,1-.26.53l-6.46,3.5c0-2.58,0-4.8,0-7,0-4.85.12-9.69-.09-14.52A9.5,9.5,0,0,1,63,116.76c1.44-1.6,2.71-3.37,4.06-5.06.1,2,.19,4,.32,6.48L88.25,95.9l-6.37-6.2a2.87,2.87,0,0,1,.23-.64L88,83.34Z"/><path class="b" d="M68.81,142a3.71,3.71,0,0,0,.26-.53c8.17-4.79,16.37-9.55,24.51-14.4,6.76-4,13.45-8.16,20.18-12.25l.57.07,4.34,3.78L68.81,157.48Z"/><path class="b" d="M88.5,83.32l-.53,0-8.68-8.23,2.57-2.33,22.21-19.9a4.53,4.53,0,0,1,.52,0l7.65,6.87Q100.32,71.56,88.5,83.32Z"/><path class="a" d="M60.29,86.77c.06-5.15.08-10.3.2-15.45a32.7,32.7,0,0,1,.56-4q2.79-4.56,5.6-9.11a1,1,0,0,0,.4.14V64.6l11.48-9.89.83.73a30.52,30.52,0,0,1-1.84,3.87c-2.88,4.43-5.91,8.77-8.79,13.21a7.64,7.64,0,0,0-1.52,3.7c-.08,7.52.05,15,.11,22.56L67,99.84l-6.46,7.52C60.47,100.15,60.38,93.46,60.29,86.77Z"/><path class="c" d="M81.88,89.7l6.37,6.2L67.38,118.18l-.32-6.48.3-1Z"/><path class="b" d="M81.88,89.7l-14.52,21L67,99.84l.29-1.06c2.76-3,5.47-6.07,8.27-9,1.82-1.93,3.6-4,6.84-5.12l-.32,4.44A2.87,2.87,0,0,0,81.88,89.7Z"/><path class="c" d="M82.11,89.06l.32-4.44c-3.24,1.14-5,3.19-6.84,5.12-2.8,3-5.51,6-8.27,9-.06-7.52-.19-15-.11-22.56a7.64,7.64,0,0,1,1.52-3.7c2.88-4.44,5.91-8.78,8.79-13.21a30.52,30.52,0,0,0,1.84-3.87l-.83-.73L67.05,64.6V58.31a45.57,45.57,0,0,0,2.63-4.79c.55-1.35,1.41-3.58.84-4.21-1.58-1.76-2.49.89-3.83,1.34-.91-5.95-.22-12.2-2.73-17.84l-1.14,0-1.47,24-.33,1a6.49,6.49,0,0,1-.92-2.09c-.36-7.28-.52-14.58-1-21.86-.14-2.3-1-4.55-1.56-6.82l-1.22,0A24.87,24.87,0,0,0,55,31.75c-.52,5.53-1,11.08-1.21,16.63-.3,10.19-.32,20.4-.49,30.6q-.49,30.75-1,61.5a11.29,11.29,0,0,1-.37,1.56L16.72,110.36c1-7.45,2-14.91,3.08-22.36,1.44-10.09,3-20.16,4.37-30.26a11.05,11.05,0,0,1,3.91-7.62C39.24,40.57,50.17,30.74,61.19,21c.85-.74,1.72-1.46,2.73-2.31,6,5.11,12,10.11,17.93,15.16q11.13,9.48,22.22,19L81.86,72.78l-2.57,2.33L88,83.34Z"/><path class="c" d="M112.05,114.86c-6.73,4.09-13.42,8.23-20.18,12.25-8.15,4.85-16.34,9.61-24.51,14.4,0-3.71-.17-7.42-.07-11.12a5.06,5.06,0,0,1,1.17-3.06c8.17-8.72,16.42-17.36,24.66-26a7.76,7.76,0,0,1,1.15-.77Z"/><path class="b" d="M66.65,58.17q-.09-3.33-.16-6.68l.2-.84c1.34-.45,2.25-3.1,3.83-1.34.57.63-.29,2.86-.84,4.21a45.57,45.57,0,0,1-2.63,4.79A1,1,0,0,1,66.65,58.17Z"/><path class="a" d="M66.69,50.65l-.2.84-5.14,5.4,1.47-24,1.14,0C66.47,38.45,65.78,44.7,66.69,50.65Z"/><path d="M233.66,135.38q-12.72,0-12.73-12.72V37.34q0-12.72,12.73-12.72h38q17.76,0,27.42,7.69t9.66,21.06a25.92,25.92,0,0,1-4.4,15.16A26.29,26.29,0,0,1,292.11,78q9.42,2.68,14.53,9.43t5.11,16.66q0,14.76-10.29,23t-28,8.25Zm10.53-65.2h23.25q17.91,0,17.91-13.83,0-13.66-17.91-13.67H244.19Zm0,47.13h25.92q9.43,0,13.83-3.61t4.4-11q0-7.22-4.4-10.84t-13.83-3.61H244.19Z"/><path d="M342.86,135.38q-12.74,0-12.73-12.72V37.34q0-12.72,12.73-12.72h54.83q9.58,0,9.59,9.42,0,9.59-9.59,9.59H353.38V69.55h40.7q9.74,0,9.74,9.58t-9.74,9.59h-40.7v27.65h44.31q9.58,0,9.59,9.43,0,9.58-9.59,9.58Z"/><path d="M463.84,136.8q-6,0-9.11-3.3t-3.15-9.27V44.73H423.77q-10.22,0-10.21-10.06t10.21-10h80q10.2,0,10.21,10.05T503.75,44.73H475.94v79.5q0,6-3.07,9.27T463.84,136.8Z"/><path d="M515.21,136.8q-6.6,0-9.42-4.4t.15-10.84l40.23-88.15a19.12,19.12,0,0,1,6-7.77,14.37,14.37,0,0,1,16,0A18.1,18.1,0,0,1,574,33.41l40.53,88.15q3,6.6.24,10.92c-1.84,2.88-4.79,4.32-8.88,4.32q-5.34,0-8.25-2.52a20.44,20.44,0,0,1-5.1-7.85l-6.6-15.08H534.23l-6.45,15.08q-2.35,5.5-5,7.93C521,136,518.46,136.8,515.21,136.8Zm44.63-86.26L542.4,92.33h35.5L560.15,50.54Z"/></svg>