<svg xmlns="http://www.w3.org/2000/svg" viewBox="0 0 480 300"><defs><style>.cls-1{fill:#030102;}.cls-2{fill:#f0fcfa;}.cls-3{fill:#fff;}.cls-4{fill:#02cfb1;}.cls-5{fill:#f22644;}</style></defs><g id="Layer_2" data-name="Layer 2"><g id="Layer_11" data-name="Layer 11"><rect class="cls-1" x="234.58" y="121.67" width="178.03" height="56.57"/><path class="cls-2" d="M469.74,0H10.26A10.26,10.26,0,0,0,0,10.27V289.74A10.27,10.27,0,0,0,10.26,300H469.74A10.27,10.27,0,0,0,480,289.74V10.27A10.26,10.26,0,0,0,469.74,0ZM269.32,165.89a8.87,8.87,0,0,1-7.74,4.75c-4.56.18-9.13.14-13.7.08-2.35,0-3-.76-3-3.06,0-11.32,0-22.64,0-34,0-2,.88-3,2.79-3,4.67,0,9.34-.16,14,.13,3.46.21,6.34,1.94,7.5,5.41,1.32,3.94,1.13,7.82-1.71,11.19a17.73,17.73,0,0,1-1.68,1.55A13.45,13.45,0,0,1,269.32,165.89Zm32.8-19.17c0,3.87,0,7.74,0,11.61-.08,7.71-4.27,12.21-12,12.63a21.07,21.07,0,0,1-6.74-.78c-4.93-1.37-7.72-4.92-7.89-10.62-.25-8.73-.12-17.47-.07-26.2,0-2.18,1.19-2.94,3.92-2.89s3.56.79,3.57,3.25c0,7.15,0,14.3,0,21.44,0,1.19,0,2.39,0,3.58.16,3.88,2,5.72,5.64,5.79s5.89-1.71,6-5.74c.14-8,.07-16.08.09-24.12,0-3.54,1.21-4.59,4.7-4.16,1.86.22,2.82,1.1,2.79,3.11C302.08,138,302.13,142.35,302.12,146.72Zm28.66,22.42a3.07,3.07,0,0,1-2.15,1.53c-5.75.12-11.51.12-17.27,0-2.39,0-3.15-.91-3.15-3.34q0-16.68,0-33.36c0-2.57,1-3.36,3.74-3.36s3.76.76,3.77,3.36c0,9,0,18.07,0,27.11v3.16c4.14,0,8.08-.05,12,0C330.68,164.33,332.07,166.52,330.78,169.14Zm32.05,1.65c-2.5-.12-3.34-.95-3.35-3.49,0-6.06,0-12.12,0-18.18v-2.63l-.42-.17c-1.67,2.93-3.24,5.94-5.08,8.78-.74,1.14-2.05,2.63-3.12,2.64s-2.43-1.45-3.13-2.6c-1.83-3-3.37-6.2-5.45-9.29,0,.6-.1,1.2-.1,1.8,0,6.56,0,13.11,0,19.67,0,2.66-.89,3.47-3.61,3.48s-3.61-.81-3.62-3.46c0-10.83,0-21.66,0-32.49,0-1.72.26-3.36,2-3.88s3.81-.68,5.29.9a16.11,16.11,0,0,1,2.22,3.13c2.09,3.69,4.11,7.43,6.39,11.56l6.88-12.49c1.24-2.26,2.94-3.64,5.74-3.38,1.84.17,3,1,3.31,2.79a11,11,0,0,1,.18,2.07q0,15.64,0,31.29C367,170,365.89,170.94,362.83,170.79Zm35.7-.07c-2.28.74-3.85.13-4.51-1.86s-1.27-4.15-1.94-6.38h-12.4c-.6,2.06-1.16,4.13-1.81,6.18s-2,2.77-4.42,2.14-3.29-2-2.65-4.11Q375.86,150,381,133.31c.63-2,2.54-3,5-2.94,2.72.08,4.13,1.15,4.95,3.82q4.22,13.73,8.41,27.44c.52,1.7,1.14,3.37,1.61,5.08C401.53,168.63,400.61,170.05,398.53,170.72Z"/></g><g id="text_copy_2" data-name="text copy 2"><path class="cls-1" d="M327.76,164.28c-3.94-.06-7.88,0-12,0v-3.16c0-9,0-18.07,0-27.11,0-2.6-.94-3.36-3.77-3.36s-3.74.79-3.74,3.36q0,16.68,0,33.36c0,2.43.76,3.3,3.15,3.34,5.76.09,11.52.09,17.27,0a3.07,3.07,0,0,0,2.15-1.53C332.07,166.52,330.68,164.33,327.76,164.28Z"/><path class="cls-1" d="M299.36,130.51c-3.49-.43-4.69.62-4.7,4.16,0,8,0,16.09-.09,24.12-.08,4-2.14,5.82-6,5.74s-5.48-1.91-5.64-5.79c0-1.19,0-2.39,0-3.58,0-7.14,0-14.29,0-21.44,0-2.46-.91-3.19-3.57-3.25s-3.91.71-3.92,2.89c-.05,8.73-.18,17.47.07,26.2.17,5.7,3,9.25,7.89,10.62a21.07,21.07,0,0,0,6.74.78c7.72-.42,11.91-4.92,12-12.63.05-3.87,0-7.74,0-11.61,0-4.37,0-8.74,0-13.1C302.18,131.61,301.22,130.73,299.36,130.51Z"/><path class="cls-1" d="M265.71,149a17.73,17.73,0,0,0,1.68-1.55c2.84-3.37,3-7.25,1.71-11.19-1.16-3.47-4-5.2-7.5-5.41-4.65-.29-9.32-.15-14-.13-1.91,0-2.8,1-2.79,3,0,11.32,0,22.64,0,34,0,2.3.68,3,3,3.06,4.57.06,9.14.1,13.7-.08a8.87,8.87,0,0,0,7.74-4.75A13.45,13.45,0,0,0,265.71,149ZM252.2,137.15c2.2,0,4.26-.09,6.3,0,2.47.14,3.69,1.51,3.79,4,.13,2.94-.92,4.6-3.51,4.89a59.82,59.82,0,0,1-6.58.05Zm10.92,23.45c-.44,2.44-1.82,3.49-4.37,3.61-2.07.1-4.16,0-6.47,0V152.08c2.38,0,4.56,0,6.74,0a3.92,3.92,0,0,1,4.13,3.52A14.73,14.73,0,0,1,263.12,160.6Z"/><path class="cls-1" d="M366.78,133.48c-.34-1.81-1.47-2.62-3.31-2.79-2.8-.26-4.5,1.12-5.74,3.38l-6.88,12.49c-2.28-4.13-4.3-7.87-6.39-11.56a16.11,16.11,0,0,0-2.22-3.13c-1.48-1.58-3.49-1.44-5.29-.9s-2.05,2.16-2,3.88c0,10.83,0,21.66,0,32.49,0,2.65.9,3.46,3.62,3.46s3.61-.82,3.61-3.48c0-6.56,0-13.11,0-19.67,0-.6.07-1.2.1-1.8,2.08,3.09,3.62,6.28,5.45,9.29.7,1.15,2.08,2.62,3.13,2.6s2.38-1.5,3.12-2.64c1.84-2.84,3.41-5.85,5.08-8.78l.42.17v2.63c0,6.06,0,12.12,0,18.18,0,2.54.85,3.37,3.35,3.49,3.06.15,4.13-.83,4.13-3.95q0-15.65,0-31.29A11,11,0,0,0,366.78,133.48Z"/><path class="cls-1" d="M399.4,161.63q-4.2-13.71-8.41-27.44c-.82-2.67-2.23-3.74-4.95-3.82-2.46-.08-4.37.91-5,2.94Q375.85,150,370.8,166.69c-.64,2.12.36,3.51,2.65,4.11s3.74,0,4.42-2.14,1.21-4.12,1.81-6.18h12.4c.67,2.23,1.25,4.32,1.94,6.38s2.23,2.6,4.51,1.86c2.08-.67,3-2.09,2.48-4C400.54,165,399.92,163.33,399.4,161.63Zm-18.13-5.16c1.49-5.3,2.93-10.42,4.58-16.26,1.65,5.79,3.09,10.87,4.63,16.26Z"/><path class="cls-3" d="M259,152.08c-2.18,0-4.36,0-6.74,0v12.15c2.31,0,4.4.08,6.47,0,2.55-.12,3.93-1.17,4.37-3.61a14.73,14.73,0,0,0,0-5A3.92,3.92,0,0,0,259,152.08Z"/><path class="cls-3" d="M258.78,146c2.59-.29,3.64-1.95,3.51-4.89-.1-2.47-1.32-3.84-3.79-4-2-.11-4.1,0-6.3,0v8.94A59.82,59.82,0,0,0,258.78,146Z"/><path class="cls-3" d="M381.27,156.47h9.21c-1.54-5.39-3-10.47-4.63-16.26C384.2,146.05,382.76,151.17,381.27,156.47Z"/></g><path class="cls-4" d="M88.81,186.11c-2.83-2.62-5.63-5.28-8.53-7.83A3.7,3.7,0,0,1,79,174.33c4.12-23.3,8.06-46.62,12.2-69.91a9.76,9.76,0,0,1,2.69-5.3c15.29-13.75,30.71-27.35,46.11-41a9,9,0,0,1,1.28-.77l59.82,53.44-6.18,6-.62,0Q180.89,105.42,167.53,94c-7.13-6.07-14.3-12.08-21.57-18.22-1.2,1-2.25,1.88-3.27,2.78-13.25,11.68-26.39,23.5-39.81,35-3,2.59-4.2,5.43-4.71,9.17-1.64,12.14-3.51,24.25-5.25,36.38-1.27,9-2.47,17.92-3.7,26.88A2.86,2.86,0,0,1,88.81,186.11Z"/><path class="cls-5" d="M88.81,186.11a2.86,2.86,0,0,0,.41-.15l42.28,38.1a13.48,13.48,0,0,0,.45-1.88q.65-37,1.25-74c.2-12.26.23-24.53.59-36.79.2-6.68.83-13.35,1.46-20a30.8,30.8,0,0,1,1.6-5.59l1.47,0c.65,2.74,1.71,5.45,1.88,8.21.55,8.75.75,17.53,1.17,26.29a8.26,8.26,0,0,0,1.11,2.51l0,11.27a42.66,42.66,0,0,0-.67,4.86c-.14,6.19-.17,12.39-.24,18.58-.54,21.45-1.13,42.91-1.61,64.37-.15,6.51,0,13,0,20.43a36.67,36.67,0,0,1-3.13-2.19c-15.53-14.09-31-28.25-46.61-42.26-2.13-1.91-3-3.66-2.09-6.46A29.76,29.76,0,0,0,88.81,186.11Z"/><path class="cls-4" d="M175.52,153.45l32.89,29.64,3.77,3.43-7.66,4.94-.68-.08c-7.15-5.76-14.3-11.53-21.38-17.22a8.64,8.64,0,0,0-1.38.93c-9.91,10.4-19.83,20.79-29.65,31.28A6,6,0,0,0,150,210c-.12,4.46,0,8.92.08,13.38a3.07,3.07,0,0,1-.31.63L142,228.27v-8.45c0-5.82.14-11.65-.11-17.46a11.4,11.4,0,0,1,3-8.7c1.73-1.93,3.26-4,4.88-6.09.11,2.4.23,4.81.38,7.79l25.09-26.78-7.66-7.46a4.17,4.17,0,0,1,.28-.77l7-6.88A4.42,4.42,0,0,0,175.52,153.45Z"/><path class="cls-5" d="M151.85,224.05a3.68,3.68,0,0,0,.31-.63c9.83-5.77,19.68-11.48,29.47-17.31,8.13-4.84,16.18-9.82,24.26-14.73l.69.08L211.8,196l-60,46.62Z"/><path class="cls-5" d="M175.52,153.45a4.42,4.42,0,0,1-.63,0l-10.44-9.89c1.27-1.15,2.17-2,3.09-2.8l26.71-23.93.62,0c2.95,2.65,5.9,5.31,9.2,8.26Z"/><path class="cls-4" d="M141.6,157.6c.07-6.19.1-12.39.24-18.58a42.66,42.66,0,0,1,.67-4.86q3.38-5.47,6.74-10.94a1.18,1.18,0,0,0,.49.16v7.56l13.79-11.89,1,.88a38.18,38.18,0,0,1-2.21,4.65c-3.47,5.33-7.12,10.55-10.58,15.88a9.36,9.36,0,0,0-1.83,4.45c-.09,9,.07,18.09.14,27.13l-.34,1.28-7.78,9C141.82,173.69,141.71,165.64,141.6,157.6Z"/><path class="cls-1" d="M167.56,161.12l7.66,7.46-25.09,26.78-.38-7.79.36-1.23Q158.82,173.73,167.56,161.12Z"/><path class="cls-5" d="M167.56,161.12q-8.73,12.62-17.45,25.22l-.39-13,.34-1.28c3.31-3.63,6.57-7.3,9.94-10.87,2.19-2.32,4.33-4.78,8.22-6.16-.15,2.23-.27,3.79-.38,5.34A4.17,4.17,0,0,0,167.56,161.12Z"/><path class="cls-1" d="M167.84,160.35c.11-1.55.23-3.11.38-5.34-3.89,1.38-6,3.84-8.22,6.16-3.37,3.57-6.63,7.24-9.94,10.87-.07-9-.23-18.09-.14-27.13a9.36,9.36,0,0,1,1.83-4.45c3.46-5.33,7.11-10.55,10.58-15.88a38.18,38.18,0,0,0,2.21-4.65l-1-.88-13.79,11.89v-7.56a52.85,52.85,0,0,0,3.15-5.76c.67-1.62,1.7-4.3,1-5.06-1.91-2.12-3,1.08-4.61,1.61C148.21,107,149,99.5,146,92.71l-1.37.06q-.87,14.45-1.76,28.9l-.4,1.22a8.26,8.26,0,0,1-1.11-2.51c-.42-8.76-.62-17.54-1.17-26.29-.17-2.76-1.23-5.47-1.88-8.21l-1.47,0a30.8,30.8,0,0,0-1.6,5.59c-.63,6.65-1.26,13.32-1.46,20-.36,12.26-.39,24.53-.59,36.79q-.6,37-1.25,74a13.48,13.48,0,0,1-.45,1.88L89.22,186c1.23-9,2.43-17.92,3.7-26.88,1.74-12.13,3.61-24.24,5.25-36.38.51-3.74,1.68-6.58,4.71-9.17,13.42-11.48,26.56-23.3,39.81-35,1-.9,2.07-1.76,3.27-2.78,7.27,6.14,14.44,12.15,21.57,18.22q13.38,11.4,26.72,22.86l-26.71,23.93c-.92.82-1.82,1.65-3.09,2.8l10.44,9.89Z"/><path class="cls-1" d="M203.84,191.38c-8.09,4.91-16.14,9.89-24.27,14.73-9.79,5.83-19.64,11.54-29.47,17.31,0-4.46-.2-8.92-.08-13.38a6,6,0,0,1,1.41-3.67c9.82-10.49,19.74-20.88,29.65-31.28a8.64,8.64,0,0,1,1.38-.93C189.54,179.85,196.69,185.62,203.84,191.38Z"/><path class="cls-5" d="M149.25,123.22q-.1-4-.19-8l.24-1c1.61-.53,2.7-3.73,4.61-1.61.68.76-.35,3.44-1,5.06a52.85,52.85,0,0,1-3.15,5.76A1.18,1.18,0,0,1,149.25,123.22Z"/><path class="cls-4" d="M149.3,114.17l-.24,1-6.18,6.49,1.76-28.9,1.37-.06C149,99.5,148.21,107,149.3,114.17Z"/></g></svg>